<svg aria-role="presentation" version="1.1" viewBox="0 0 64 64"><path transform="translate(2,11.149)" d="m23.477 39.911c1.4129 0 2.431-1.0389 2.431-2.431v-33.141c0-1.3921-1.0181-2.5349-2.4726-2.5349-1.0181 0-1.7038 0.43634-2.805 1.4752l-9.2046 8.6644c-0.14545 0.12464-0.31166 0.18698-0.51945 0.18698h-6.2126c-2.9297 0-4.5088 1.5999-4.5088 4.7374v8.0411c0 3.1167 1.5791 4.7166 4.5088 4.7166h6.2126c0.20779 0 0.374 0.06234 0.51945 0.18698l9.2046 8.7475c0.99732 0.93501 1.8285 1.3506 2.8466 1.3506z"></path><path class="chrome-volume__wave chrome-volume__wave-1" transform="translate(2,11.149)" d="m34.864 29.959c0.70647 0.49868 1.7246 0.35323 2.3271-0.47787 1.6205-2.1817 2.5971-5.3815 2.5971-8.6436 0-3.2621-0.9766-6.4411-2.5971-8.6436-0.60255-0.83111-1.5999-0.97655-2.3271-0.49868-0.89345 0.62336-1.0181 1.683-0.35319 2.5765 1.2051 1.6207 1.9323 4.0932 1.9323 6.5658 0 2.4726-0.76881 4.9451-1.9531 6.5866-0.62332 0.89345-0.51945 1.9116 0.374 2.5349z"></path></svg>